# xmcd CD database file
#
# Track frame offsets:
#	150
#	11070
#	23560
#	35325
#	47670
#	57958
#	68710
#	81260
#	92473
#	104360
#	116568
#	126485
#	134735
#
# Disc length: 1895 seconds
#
# Revision: 0
# Processed by: cddbd v1.4PL0 Copyright (c) Steve Scherf et al.
# Submitted via: CDex 1.40Beta6
#
DISCID=ad07650d
DTITLE=Johnny cash - Greatest Hits Vol 1
DYEAR=1990
DGENRE=Country
TTITLE0=Cry, Cry, Cry
TTITLE1=Folsom Prison Blues
TTITLE2=So Doggone Lonesome
TTITLE3=I Walk The Line
TTITLE4=There You Go
TTITLE5=Train of Love
TTITLE6=Next In Line
TTITLE7=Don't Make Me Go
TTITLE8=Home of the Blues
TTITLE9=Give My Love to Rose
TTITLE10=Ballad of a Teenage Queen
TTITLE11=Guess Things Happen That Way
TTITLE12=Come In Stranger
EXTD=
EXTT0=
EXTT1=
EXTT2=
EXTT3=
EXTT4=
EXTT5=
EXTT6=
EXTT7=
EXTT8=
EXTT9=
EXTT10=
EXTT11=
EXTT12=
PLAYORDER=
